<?xml version="1.0" encoding="UTF-8"?>
<!DOCTYPE svg PUBLIC "-//W3C//DTD SVG 1.1//EN" "http://www.w3.org/Graphics/SVG/1.1/DTD/svg11.dtd">
<!-- Creator: CorelDRAW 2020 (64-Bit) -->
<svg xmlns="http://www.w3.org/2000/svg" xml:space="preserve" width="210mm" height="297mm" version="1.1" style="shape-rendering:geometricPrecision; text-rendering:geometricPrecision; image-rendering:optimizeQuality; fill-rule:evenodd; clip-rule:evenodd"
viewBox="0 0 21000 29700"
 xmlns:xlink="http://www.w3.org/1999/xlink"
 xmlns:xodm="http://www.corel.com/coreldraw/odm/2003">
 <defs>
  <style type="text/css">
   <![CDATA[
    .fil0 {fill:#2B2A29;fill-rule:nonzero}
   ]]>
  </style>
 </defs>
 <g id="Слой_x0020_1">
  <metadata id="CorelCorpID_0Corel-Layer"/>
  <path class="fil0" d="M5920.07 13116.69l0 896.05 319.74 0c169.79,0 289.18,-30.84 358.09,-92.5 31.53,-28.21 55.67,-67.83 72.36,-118.8 18.28,-55.84 27.44,-124.89 27.44,-207.12 0,-94.35 -9.35,-173.52 -28.03,-237.43 -17.12,-58.56 -42.14,-104.31 -75,-137.17 -33.07,-33.07 -77.56,-58.19 -133.41,-75.3l-3.01 -1c-59.72,-17.82 -132.54,-26.73 -218.44,-26.73l-319.74 0zm-150 971.05l0 -1046.05c0,-41.42 33.58,-75 75,-75l394.74 0c99.56,0 186.82,11.24 261.69,33.73l3.7 1.04c80.09,24.54 145.28,61.95 195.53,112.2 50.44,50.44 87.95,117.67 112.5,201.63 22.97,78.6 34.47,171.63 34.47,279.03 0,97.57 -11.7,182.05 -35.06,253.4 -24.96,76.22 -63.36,137.51 -115.14,183.84 -97.73,87.45 -250.31,131.18 -457.69,131.18l-394.74 0c-41.42,0 -75,-33.58 -75,-75zm150 884.21l0 1053.94 378.95 0c86.19,0 159.43,-10.6 219.63,-31.79 56.26,-19.8 101.47,-48.97 135.59,-87.46 35.12,-39.62 61.84,-92.73 80.11,-159.26 19.42,-70.73 29.14,-156.85 29.14,-258.33 0,-100.09 -10.44,-184.71 -31.32,-253.81 -19.38,-64.12 -47.39,-114.08 -83.99,-149.81 -37.52,-36.64 -86.24,-64.41 -146.11,-83.28l-0.26 -0.09c-63.85,-20.04 -140.22,-30.11 -229.11,-30.11l-352.63 0zm-150 1128.94l0 -1203.94c0,-41.42 33.58,-75 75,-75l427.63 0c104.08,0 195.5,12.42 274.2,37.24 82.52,26.14 151.07,65.8 205.58,119.02 55.48,54.16 96.58,125.41 123.25,213.67 25.17,83.3 37.76,182.38 37.76,297.17 0,113.43 -11.67,212.64 -35,297.59 -24.48,89.14 -61.95,162.18 -112.33,219.02 -51.41,58 -117.51,101.23 -198.29,129.66 -76.83,27.04 -166.47,40.57 -268.85,40.57l-453.95 0c-41.42,0 -75,-33.58 -75,-75zm581.58 943.42l-1736.84 0c-41.42,0 -75,-33.58 -75,-75l0 -736.84c0,-36.34 25.86,-66.65 60.17,-73.53 54.9,-16.38 93.51,-46.88 115.79,-91.45 27.43,-54.85 41.15,-184.08 41.15,-387.65l0 -2243.42c0,-203.57 -13.72,-332.8 -41.15,-387.65 -22.96,-45.93 -63.27,-76.91 -120.88,-92.91 -33.15,-9.16 -54.89,-39.27 -54.87,-72.07l-0.21 0 0 -703.94c0,-41.42 33.58,-75 75,-75l1684.21 0c264.69,0 494.11,26.47 688.21,79.41 198.2,54.04 359.22,135.91 483,245.55 124.88,110.61 218.28,254.02 280.15,430.2 60.49,172.24 90.74,375.36 90.74,609.31 0,265.71 -40.02,478.62 -120.04,638.66 -41.7,83.4 -101.3,159.01 -178.76,226.79 -44.8,39.2 -95.62,75.8 -152.45,109.81 22.41,13.83 43.93,27.98 64.58,42.45 57.37,40.22 107.87,82.74 151.46,127.5 44.27,45.47 82.86,92.87 115.7,142.13 32.97,49.45 61,102.12 84.04,157.92 22.24,53.85 40.69,110.66 55.33,170.38 14.55,59.36 25.28,121.26 32.18,185.65 6.68,62.39 11.72,128.57 15.1,198.47 3.48,71.98 5.23,144.44 5.23,217.34 0,238.22 -29.33,443.61 -87.98,616.12 -60.16,176.91 -151.18,319.15 -273.04,426.68 -120.8,106.6 -283.04,186.09 -486.64,238.44 -198.71,51.09 -436.79,76.65 -714.18,76.65zm-1661.84 -150l1661.84 0c266.47,0 492.23,-23.8 677.26,-71.37 180.15,-46.32 321.68,-114.87 424.54,-205.64 101.8,-89.83 178.57,-210.78 230.26,-362.8 53.18,-156.44 79.78,-345.81 79.78,-568.08 0,-76.19 -1.56,-146.31 -4.65,-210.3 -3.19,-66.04 -8.03,-129.29 -14.5,-189.69 -6.25,-58.39 -15.82,-113.85 -28.68,-166.31 -12.77,-52.11 -28.88,-101.7 -48.29,-148.7 -18.6,-45.05 -42.14,-88.92 -70.56,-131.56 -28.55,-42.83 -61.28,-83.19 -98.12,-121.03 -37.54,-38.55 -80.81,-75.01 -129.78,-109.34 -49.85,-34.94 -105.75,-67.94 -167.65,-98.97 -15.18,-7.18 -28.05,-19.48 -35.71,-35.88 -17.47,-37.37 -1.33,-81.85 36.04,-99.32 96.59,-45.21 177.36,-96.24 242.29,-153.05 62.87,-55.01 110.75,-115.39 143.6,-181.09 69.09,-138.18 103.64,-328.82 103.64,-571.86 0,-217.8 -27.32,-404.51 -81.96,-560.09 -53.26,-151.66 -132.59,-274.18 -237.95,-367.5 -106.46,-94.3 -247.56,-165.43 -423.24,-213.33 -179.78,-49.03 -396.11,-73.55 -648.95,-73.55l-1609.21 0 0 576.33c71.85,31.49 125.05,81.75 159.56,150.79 38.36,76.72 57.55,228.21 57.55,454.45l0 2243.42c0,226.24 -19.19,377.73 -57.55,454.45 -34.51,69.04 -87.71,119.3 -159.56,150.79l0 609.23zm5003.93 150l-1309.2 0c-41.42,0 -75,-33.58 -75,-75l0 -710.52c0,-41.42 33.58,-75 75,-75 22.11,0 41.52,-4.81 58.18,-14.42 18.14,-10.47 34.98,-27.34 50.47,-50.58l1.6 -2.31c14.93,-23.71 26.95,-65.53 36.02,-125.54 10.38,-68.61 15.57,-157.3 15.57,-266.14l0 -2872.8c0,-79.72 -3.28,-144.49 -9.81,-194.42 -5.93,-45.27 -14.09,-77.84 -24.45,-97.77 -14.48,-27.85 -39.48,-41.8 -74.95,-41.8 -41.42,0 -75,-33.58 -75,-75l0 -710.53c0,-41.42 33.58,-75 75,-75l1065.79 0c41.42,0 75,33.58 75,75l0 4038.37c0,87.46 3.61,160.99 10.68,220.69 6.81,57.53 16.33,101.01 28.41,130.56 9.39,22.97 20.79,39.48 34.21,49.49 10.9,8.13 25.05,12.2 42.48,12.2 41.42,0 75,33.58 75,75l0 710.52c0,41.42 -33.58,75 -75,75zm-1234.2 -150l1159.2 0 0 -572.39c-20.46,-6.99 -39.49,-17.06 -57.12,-30.21 -35.08,-26.15 -62.65,-63.95 -82.85,-113.35 -17.65,-43.16 -30.71,-99.55 -38.95,-169.24 -7.85,-66.29 -11.86,-145.7 -11.86,-238.27l0 -3963.37 -915.79 0 0 570.31c58.12,16.57 102.44,54.2 132.95,112.88 18.13,34.87 31.37,84.04 39.69,147.57 7.7,58.89 11.57,130.11 11.57,213.76l0 2872.8c0,115.93 -5.78,212.02 -17.33,288.4 -12.21,80.81 -31.86,142.35 -58.89,184.72l-2.17 3.49c-28.35,42.54 -61.99,75.04 -100.85,97.46 -18.4,10.61 -37.6,18.81 -57.6,24.58l0 570.86zm3043.41 150l-1309.2 0c-41.42,0 -75,-33.58 -75,-75l0 -710.52c0,-41.42 33.58,-75 75,-75 22.69,0 42.69,-4.66 59.94,-13.95 18.34,-9.87 35.09,-25.4 50.17,-46.52 15.18,-21.25 27.34,-60.61 36.45,-118.03 10.18,-64.16 15.28,-148.53 15.28,-253.08l0 -1552.63c0,-75.1 -3.27,-138.32 -9.81,-189.62 -6.23,-48.92 -15.37,-88.2 -27.38,-117.78 -9.05,-22.28 -19.68,-37.96 -31.85,-47.01 -10.18,-7.58 -23.59,-11.38 -40.17,-11.38 -41.42,0 -75,-33.58 -75,-75l0 -710.52c0,-41.42 33.58,-75 75,-75l1065.79 0c41.42,0 75,33.58 75,75l0 2749.99c0,84.44 3.61,155.17 10.69,212.19 6.62,53.28 15.84,92.91 27.52,118.89 9.12,20.26 19.82,34.6 32.16,42.96 11.28,7.65 26.41,11.49 45.41,11.49 41.42,0 75,33.58 75,75l0 710.52c0,41.42 -33.58,75 -75,75zm-1234.2 -150l1159.2 0 0 -571.83c-19.26,-6.26 -37.32,-15.1 -54.19,-26.54 -36.17,-24.53 -64.41,-59.56 -84.9,-105.08 -18.02,-40.07 -31.37,-94.19 -39.82,-162.25 -7.87,-63.31 -11.87,-140.11 -11.87,-230.35l0 -2674.99 -915.79 0 0 572.78c19.34,6.82 37.42,16.49 54.23,29 34.96,26.01 62.19,62.98 81.65,110.87 16.48,40.58 28.74,92.36 36.76,155.28 7.71,60.52 11.57,129.99 11.57,208.38l0 1552.63c0,110.35 -5.87,202.53 -17.62,276.52 -12.8,80.72 -33.57,141.18 -62.23,181.31 -28.76,40.26 -62.49,70.83 -101.15,91.64 -17.83,9.6 -36.45,17.05 -55.84,22.34l0 570.29zm517.1 -4047.36c-57.84,0 -110.87,-1.74 -159.04,-5.22 -48.42,-3.5 -91.12,-8.83 -128.04,-15.97 -40.14,-7.76 -76.29,-19.53 -108.39,-35.24 -34.15,-16.71 -63.05,-37.61 -86.65,-62.69 -23.53,-24.99 -43.03,-55.06 -58.47,-90.17 -14.21,-32.31 -25.21,-69.79 -32.95,-112.4 -7.22,-39.74 -12.55,-84.43 -15.97,-134.02 -3.48,-50.5 -5.22,-105.62 -5.22,-165.34 0,-231.58 38.43,-384.43 115.24,-458.51 41.02,-39.57 104.24,-68.22 189.59,-85.94 76.91,-15.98 173.57,-23.97 289.9,-23.97 114.14,0 209.7,7.99 286.61,23.97 84.55,17.55 148.27,45.63 191.12,84.19 44.23,39.81 76.43,101.04 96.58,183.64 18,73.81 27.01,166.04 27.01,276.62 0,121.85 -7.07,221.66 -21.2,299.36 -7.79,42.84 -19.73,81.02 -35.77,114.45 -17.27,35.98 -39.1,66.46 -65.45,91.34 -25.3,23.9 -55.16,43.93 -89.53,60.06 -32.78,15.39 -69.09,26.96 -108.86,34.65 -36.88,7.14 -79.03,12.47 -126.4,15.97 -47.02,3.48 -98.4,5.22 -154.11,5.22zm-148.5 -154.64c42.81,3.09 92.33,4.64 148.5,4.64 53.91,0 101.78,-1.55 143.57,-4.64 41.43,-3.06 77.73,-7.62 108.82,-13.63 28.2,-5.46 52.79,-13.11 73.7,-22.93 19.36,-9.08 36.13,-20.32 50.27,-33.68 13.11,-12.38 24.2,-28.01 33.23,-46.82 10.26,-21.38 18.09,-46.85 23.45,-76.35 12.18,-67 18.28,-158.02 18.28,-273 0,-99.93 -7.45,-180.43 -22.33,-241.46 -12.74,-52.23 -29.9,-88.08 -51.46,-107.48 -22.93,-20.64 -63.41,-37 -121.38,-49.03 -65.61,-13.63 -151.01,-20.45 -256.15,-20.45 -107.33,0 -193.83,6.82 -259.44,20.45 -57.17,11.87 -95.97,27.64 -116.33,47.28 -45.96,44.32 -68.96,161.24 -68.96,350.69 0,58.69 1.55,110.49 4.64,155.38 3.15,45.8 7.71,85.02 13.63,117.62 5.41,29.75 13.07,55.9 22.97,78.4 8.67,19.7 18.8,35.72 30.35,47.99 11.47,12.19 25.92,22.55 43.29,31.05 19.4,9.49 43.05,16.96 70.89,22.34 31.04,6 67.88,10.56 110.46,13.63zm2855.08 3540.16l0 736.84c0,35.88 -25.19,65.86 -58.85,73.25 -28.04,8.44 -58.13,16.28 -90.24,23.49 -32.77,7.41 -67.9,14.01 -105.27,19.85 -38.4,6 -77.84,10.42 -118.29,13.22 -42.24,2.93 -85.59,4.4 -129.98,4.4 -86.92,0 -166.7,-6.16 -239.27,-18.44 -73.97,-12.52 -140.16,-31.56 -198.51,-57.09 -60.34,-26.39 -114.62,-61.51 -162.77,-105.28 -47.74,-43.4 -89.45,-95.22 -125.09,-155.44 -34.74,-58.7 -63.96,-125.96 -87.62,-201.68 -23.09,-73.89 -40.97,-156.31 -53.62,-247.21 -12.33,-88.57 -21.58,-187.41 -27.73,-296.45 -6.22,-110.32 -9.34,-228.75 -9.34,-355.25l0 -1813.15 -168.42 0c-41.42,0 -75,-33.58 -75,-75l0 -730.26c0,-41.42 33.58,-75 75,-75l168.42 0 0 -536.84c0,-34.21 22.9,-63.06 54.21,-72.07l864.31 -307.75c38.99,-13.75 81.76,6.72 95.51,45.71 2.9,8.23 4.28,16.64 4.28,24.9l0.11 0 0 846.05 313.16 0c41.42,0 75,33.58 75,75l0 730.26c0,41.42 -33.58,75 -75,75l-313.16 0 0 1786.84c0,126.13 5.74,228.07 17.21,305.77 10.32,69.94 24.04,116.96 41.1,141 15.16,21.36 38.55,37.88 70.1,49.53 37.57,13.86 86.01,20.8 145.27,20.8l39.48 0c41.42,0 75,33.58 75,75zm-150 680.2l0 -605.96c-61.62,-2.68 -115.41,-12.49 -161.31,-29.42 -60.52,-22.34 -107.35,-56.83 -140.42,-103.43 -31.16,-43.92 -53.67,-112.62 -67.46,-206.04 -12.64,-85.66 -18.97,-194.82 -18.97,-327.45l0 -1861.84c0,-41.42 33.58,-75 75,-75l313.16 0 0 -580.26 -313.16 0c-41.42,0 -75,-33.58 -75,-75l0 -814.87 -718.42 255.8 0 559.07c0,41.42 -33.58,75 -75,75l-168.42 0 0 580.26 168.42 0c41.42,0 75,33.58 75,75l0 1888.15c0,127.89 2.93,243.59 8.76,347.05 5.9,104.75 14.77,199.49 26.55,284.15 11.46,82.31 27.58,156.71 48.34,223.17 20.18,64.59 44.72,121.3 73.56,170.04 27.95,47.22 60.29,87.53 96.97,120.88 36.25,32.95 76.86,59.29 121.75,78.92 46.9,20.52 101.37,36.04 163.35,46.53 63.36,10.72 134.94,16.1 214.67,16.1 43.32,0 83.34,-1.28 120.02,-3.82 38.47,-2.67 73.62,-6.49 105.39,-11.46 32.74,-5.11 64.54,-11.13 95.32,-18.03l0.3 0c10.66,-2.39 21.19,-4.9 31.6,-7.54zm3042.09 131.64l-2592.1 0c-41.42,0 -75,-33.58 -75,-75l0 -769.73c0,-17.63 6.1,-33.83 16.28,-46.64l1530.18 -2279.67 -234.62 0c-83.82,0 -153.65,4.82 -209.43,14.45 -50.61,8.74 -88.14,20.86 -112.57,36.33 -17.54,11.11 -31.78,33.56 -42.66,67.29 -13.9,43.11 -20.86,101.57 -20.86,175.35l0 131.57c0,41.42 -33.58,75 -75,75l-723.68 0c-41.42,0 -75,-33.58 -75,-75l0 -1249.99c0,-41.42 33.58,-75 75,-75l2539.46 0c41.42,0 75,33.58 75,75l0 750c0,17.58 -6.05,33.76 -16.19,46.54l-1524.01 2279.77 346.78 0c56.66,0 104.26,-7.4 142.75,-22.16 34.2,-13.12 61.31,-32.37 81.26,-57.69 22.65,-28.74 39.75,-62.41 51.25,-100.92 12.11,-40.5 18.16,-86.84 18.16,-138.97l0 -125c0,-41.42 33.58,-75 75,-75l750 0c41.42,0 75,33.58 75,75l0 1289.47c0,41.42 -33.58,75 -75,75zm-2517.1 -150l2442.1 0 0 -1139.47 -600 0 0 50c0,66.28 -8.2,126.87 -24.6,181.75 -16.98,56.86 -42.67,107.12 -77.03,150.72 -37.06,47.04 -85.65,82.1 -145.72,105.15 -55.79,21.4 -121.16,32.12 -196.07,32.12l-486.84 0 0 -0.24c-14.32,0.01 -28.81,-4.08 -41.6,-12.65 -34.3,-22.97 -43.48,-69.41 -20.51,-103.71l1592.37 -2382.03 0 -652.68 -2389.46 0 0 1099.99 573.68 0 0 -56.57c0,-88.49 9.5,-162.19 28.48,-221.05 22.01,-68.21 57.14,-117.61 105.36,-148.15 41.35,-26.19 97.04,-45.34 167.05,-57.43 64.81,-11.18 143.04,-16.79 234.63,-16.79l375 0 0 0.24c14.32,-0.01 28.81,4.08 41.6,12.65 34.3,22.97 43.48,69.41 20.51,103.71l-1598.95 2382.11 0 672.33z"/>
 </g>
</svg>
